<svg height="1934" width="720" xmlns="http://www.w3.org/2000/svg">
<rect height="1934" fill="#555" width="720"></rect>
<text fill="#7f7" font-family="Courier New" font-size="12" xml:space="preserve">
<tspan x="10" y="26"></tspan>
<tspan x="10" y="42">&gt; npmdoc-ramda@0.0.1 test /home/travis/build/npmdoc/node-npmdoc-ramda</tspan>
<tspan x="10" y="58">&gt; (set -e; export PORT=$(utility2 shServerPortRandom); utility2 test test.js)</tspan>
<tspan x="10" y="74"></tspan>
<tspan x="10" y="90"></tspan>
<tspan x="10" y="106">[MODE_BUILD=npmTest] - 2017-03-30T16:21:23Z - npm-testing /home/travis/build/npmdoc/node-npmdoc-\</tspan>
<tspan x="10" y="122">ramda</tspan>
<tspan x="10" y="138"></tspan>
<tspan x="10" y="154"></tspan>
<tspan x="10" y="170">covering $ /home/travis/.nvm/versions/node/v6.10.1/bin/node /home/travis/build/npmdoc/node-npmdo\</tspan>
<tspan x="10" y="186">c-ramda/test.js</tspan>
<tspan x="10" y="202">merging file:///home/travis/build/npmdoc/node-npmdoc-ramda/tmp/build/test-report.json to test-re\</tspan>
<tspan x="10" y="218">port</tspan>
<tspan x="10" y="234">&gt; server listening on http-port 44423</tspan>
<tspan x="10" y="250">created apidoc file:///home/travis/build/npmdoc/node-npmdoc-ramda/tmp/build/apidoc.html</tspan>
<tspan x="10" y="266"></tspan>
<tspan x="10" y="282"></tspan>
<tspan x="10" y="298">browserTest - created electron entry-page /home/travis/build/npmdoc/node-npmdoc-ramda/tmp/electr\</tspan>
<tspan x="10" y="314">on.15b2005867b0.10da88cb247b6.html</tspan>
<tspan x="10" y="330"></tspan>
<tspan x="10" y="346">Xlib:  extension "RANDR" missing on display ":99.0".</tspan>
<tspan x="10" y="362">[node test-case 1 of 6 passed] - testCase_buildLib_default</tspan>
<tspan x="10" y="378">[node test-case 2 of 6 passed] - testCase_buildReadme_default</tspan>
<tspan x="10" y="394">[node test-case 3 of 6 passed] - testCase_buildTest_default</tspan>
<tspan x="10" y="410"></tspan>
<tspan x="10" y="426">browserTest - created electron entry-page /home/travis/build/npmdoc/node-npmdoc-ramda/tmp/electr\</tspan>
<tspan x="10" y="442">on.15b200587590.ec72c0b391dc4.html</tspan>
<tspan x="10" y="458"></tspan>
<tspan x="10" y="474">Xlib:  extension "RANDR" missing on display ":99.0".</tspan>
<tspan x="10" y="490">&gt; server listening on http-port 62190</tspan>
<tspan x="10" y="506">merging file:///home/travis/build/npmdoc/node-npmdoc-ramda/tmp/build/test-report.json to test-re\</tspan>
<tspan x="10" y="522">port</tspan>
<tspan x="10" y="538">Xlib:  extension "RANDR" missing on display ":99.0".</tspan>
<tspan x="10" y="554">[4773:0330/162125:WARNING:audio_manager.cc(314)] Multiple instances of AudioManager detected</tspan>
<tspan x="10" y="570">[4773:0330/162125:WARNING:audio_manager.cc(275)] Multiple instances of AudioManager detected</tspan>
<tspan x="10" y="586">[4816:0330/162125:ERROR:sandbox_linux.cc(343)] InitializeSandbox() called with multiple threads \</tspan>
<tspan x="10" y="602">in process gpu-process. </tspan>
<tspan x="10" y="618">merging file:///home/travis/build/npmdoc/node-npmdoc-ramda/tmp/build/test-report.json to test-re\</tspan>
<tspan x="10" y="634">port</tspan>
<tspan x="10" y="650">[4773:0330/162126:ERROR:browser_gpu_channel_host_factory.cc(131)] Failed to create channel.</tspan>
<tspan x="10" y="666">Xlib:  extension "RANDR" missing on display ":99.0".</tspan>
<tspan x="10" y="682">[4786:0330/162126:WARNING:audio_manager.cc(314)] Multiple instances of AudioManager detected</tspan>
<tspan x="10" y="698">[4786:0330/162126:WARNING:audio_manager.cc(275)] Multiple instances of AudioManager detected</tspan>
<tspan x="10" y="714">[4845:0330/162126:ERROR:sandbox_linux.cc(343)] InitializeSandbox() called with multiple threads \</tspan>
<tspan x="10" y="730">in process gpu-process. </tspan>
<tspan x="10" y="746">[4786:0330/162126:ERROR:browser_gpu_channel_host_factory.cc(131)] Failed to create channel.</tspan>
<tspan x="10" y="762"></tspan>
<tspan x="10" y="778">browserTest - opened url /home/travis/build/npmdoc/node-npmdoc-ramda/tmp/build/apidoc.html</tspan>
<tspan x="10" y="794"></tspan>
<tspan x="10" y="810"></tspan>
<tspan x="10" y="826">browserTest - opened url http://127.0.0.1:44423?modeTest=1</tspan>
<tspan x="10" y="842"></tspan>
<tspan x="10" y="858">[4786:0330/162128:INFO:CONSOLE(206)] "----------|-----------|-----------|-----------|-----------\</tspan>
<tspan x="10" y="874">|</tspan>
<tspan x="10" y="890">File      |   % Stmts |% Branches |   % Funcs |   % Lines |</tspan>
<tspan x="10" y="906">----------|-----------|-----------|-----------|-----------|</tspan>
<tspan x="10" y="922">----------|-----------|-----------|-----------|-----------|</tspan>
<tspan x="10" y="938">All files |       100 |       100 |       100 |       100 |</tspan>
<tspan x="10" y="954">----------|-----------|-----------|-----------|-----------|</tspan>
<tspan x="10" y="970">", source: file:///home/travis/build/npmdoc/node-npmdoc-ramda/tmp/electron.15b200587590.ec72c0b3\</tspan>
<tspan x="10" y="986">91dc4.html (206)</tspan>
<tspan x="10" y="1002">[4786:0330/162128:INFO:CONSOLE(206)] "created coverage file:///tmp/build/coverage.html/index.htm\</tspan>
<tspan x="10" y="1018">l", source: file:///home/travis/build/npmdoc/node-npmdoc-ramda/tmp/electron.15b200587590.ec72c0b\</tspan>
<tspan x="10" y="1034">391dc4.html (206)</tspan>
<tspan x="10" y="1050">[node test-case 4 of 6 passed] - testCase_buildApp_default</tspan>
<tspan x="10" y="1066"></tspan>
<tspan x="10" y="1082">browserTest - created screen-capture file:///home/travis/build/npmdoc/node-npmdoc-ramda/tmp/buil\</tspan>
<tspan x="10" y="1098">d/screen-capture.npmTest.browser._2Fhome_2Ftravis_2Fbuild_2Fnpmdoc_2Fnode-npmdoc-ramda_2Ftmp_2Fb\</tspan>
<tspan x="10" y="1114">uild_2Fapidoc.html.png</tspan>
<tspan x="10" y="1130"></tspan>
<tspan x="10" y="1146"></tspan>
<tspan x="10" y="1162">browserTest - exit-code 0 - /home/travis/build/npmdoc/node-npmdoc-ramda/tmp/build/apidoc.html</tspan>
<tspan x="10" y="1178"></tspan>
<tspan x="10" y="1194">[node test-case 5 of 6 passed] - testCase_buildApidoc_default</tspan>
<tspan x="10" y="1210"></tspan>
<tspan x="10" y="1226">browserTest - created screen-capture file:///home/travis/build/npmdoc/node-npmdoc-ramda/tmp/buil\</tspan>
<tspan x="10" y="1242">d/screen-capture.npmTest.browser..png</tspan>
<tspan x="10" y="1258"></tspan>
<tspan x="10" y="1274"></tspan>
<tspan x="10" y="1290">browserTest - exit-code 0 - http://127.0.0.1:44423?modeTest=1</tspan>
<tspan x="10" y="1306"></tspan>
<tspan x="10" y="1322"></tspan>
<tspan x="10" y="1338">browserTest - merged coverage from /home/travis/build/npmdoc/node-npmdoc-ramda/tmp/coverage.npmT\</tspan>
<tspan x="10" y="1354">est.browser.%2F.json</tspan>
<tspan x="10" y="1370"></tspan>
<tspan x="10" y="1386"></tspan>
<tspan x="10" y="1402">browserTest - merging test-report from /home/travis/build/npmdoc/node-npmdoc-ramda/tmp/test-repo\</tspan>
<tspan x="10" y="1418">rt.npmTest.browser.%2F.json</tspan>
<tspan x="10" y="1434"></tspan>
<tspan x="10" y="1450">[node test-case 6 of 6 passed] - testCase_webpage_default</tspan>
<tspan x="10" y="1466">--------------------------|-----------|-----------|-----------|-----------|</tspan>
<tspan x="10" y="1482">File                      |   % Stmts |% Branches |   % Funcs |   % Lines |</tspan>
<tspan x="10" y="1498">--------------------------|-----------|-----------|-----------|-----------|</tspan>
<tspan x="10" y="1514">   node-npmdoc-ramda/     |       100 |       100 |       100 |       100 |</tspan>
<tspan x="10" y="1530">      example.js          |       100 |       100 |       100 |       100 |</tspan>
<tspan x="10" y="1546">      lib.npmdoc_ramda.js |       100 |       100 |       100 |       100 |</tspan>
<tspan x="10" y="1562">      test.js             |       100 |       100 |       100 |       100 |</tspan>
<tspan x="10" y="1578">--------------------------|-----------|-----------|-----------|-----------|</tspan>
<tspan x="10" y="1594">All files                 |       100 |       100 |       100 |       100 |</tspan>
<tspan x="10" y="1610">--------------------------|-----------|-----------|-----------|-----------|</tspan>
<tspan x="10" y="1626"></tspan>
<tspan x="10" y="1642">created coverage file:///home/travis/build/npmdoc/node-npmdoc-ramda/tmp/build/coverage.html/inde\</tspan>
<tspan x="10" y="1658">x.html</tspan>
<tspan x="10" y="1674">merging file:///home/travis/build/npmdoc/node-npmdoc-ramda/tmp/build/test-report.json to test-re\</tspan>
<tspan x="10" y="1690">port</tspan>
<tspan x="10" y="1706"></tspan>
<tspan x="10" y="1722">-------------------------------------------------------</tspan>
<tspan x="10" y="1738">| test-report - buildNpmdoc - node - linux v6.10.1 - 2017-03-30T16:21:13.367Z</tspan>
<tspan x="10" y="1754">|   16802 ms            0 failed        6 passed      |</tspan>
<tspan x="10" y="1770">-------------------------------------------------------</tspan>
<tspan x="10" y="1786"></tspan>
<tspan x="10" y="1802">created test-report file:///home/travis/build/npmdoc/node-npmdoc-ramda/tmp/build/test-report.htm\</tspan>
<tspan x="10" y="1818">l</tspan>
<tspan x="10" y="1834"></tspan>
<tspan x="10" y="1850"></tspan>
<tspan x="10" y="1866">npmTest - 0 failed tests</tspan>
<tspan x="10" y="1882"></tspan>
<tspan x="10" y="1898"></tspan>
<tspan x="10" y="1914">[MODE_BUILD=npmTest] - 2017-03-30T16:21:33Z - EXIT_CODE - 0</tspan>
</text>
</svg>
